<?xml version="1.0" encoding="UTF-8"?>
<svg xmlns="http://www.w3.org/2000/svg" viewBox="0 0 1024 1024" role="img" aria-labelledby="title desc">
  <title id="title">Rill</title>
  <desc id="desc">Three flowing streams connected by intelligence nodes.</desc>
  <defs>
    <linearGradient id="rill-square-bg" x1="0" y1="1024" x2="1024" y2="0" gradientUnits="userSpaceOnUse">
      <stop offset="0" stop-color="#071D35"/>
      <stop offset="1" stop-color="#0AA69B"/>
    </linearGradient>
  </defs>
  <rect width="1024" height="1024" rx="224" fill="url(#rill-square-bg)"/>
  <g fill="none" stroke="#D2FBFF" stroke-linecap="round" stroke-linejoin="round">
    <path d="M178 706C304 706 337 610 439 610C548 610 571 421 700 421C763 421 811 386 850 327" stroke-width="42"/>
    <path d="M196 778C333 778 377 684 483 684C592 684 626 528 749 528C795 528 827 511 851 486" stroke-width="22" opacity=".76"/>
    <path d="M183 624C263 624 301 546 382 546C471 546 500 320 638 320C713 320 759 287 790 242" stroke-width="20" opacity=".62"/>
  </g>
  <g fill="#FFFFFF" stroke="#8AF4E6" stroke-width="13">
    <circle cx="439" cy="610" r="25"/>
    <circle cx="700" cy="421" r="25"/>
    <circle cx="483" cy="684" r="17"/>
    <circle cx="638" cy="320" r="17"/>
  </g>
</svg>
